<?xml version="1.0" encoding="UTF-8" standalone="no"?>
<!-- Created with Inkscape (http://www.inkscape.org/) -->

<svg
   version="1.1"
   id="svg1"
   width="1489.4545"
   height="1489.4545"
   viewBox="0 0 1489.4545 1489.4545"
   sodipodi:docname="Unbenanntes_Projekt 2.png"
   inkscape:version="0.0"
   inkscape:export-filename="PhotoBooth.svg"
   inkscape:export-xdpi="96"
   inkscape:export-ydpi="96"
   xmlns:inkscape="http://www.inkscape.org/namespaces/inkscape"
   xmlns:sodipodi="http://sodipodi.sourceforge.net/DTD/sodipodi-0.dtd"
   xmlns="http://www.w3.org/2000/svg"
   xmlns:svg="http://www.w3.org/2000/svg">
  <defs
     id="defs1" />
  <sodipodi:namedview
     id="namedview1"
     pagecolor="#505050"
     bordercolor="#ffffff"
     borderopacity="1"
     inkscape:showpageshadow="0"
     inkscape:pageopacity="0"
     inkscape:pagecheckerboard="1"
     inkscape:deskcolor="#505050"
     showgrid="false"
     inkscape:zoom="0.21408003"
     inkscape:cx="558.20245"
     inkscape:cy="726.36386"
     inkscape:window-width="1192"
     inkscape:window-height="736"
     inkscape:window-x="0"
     inkscape:window-y="34"
     inkscape:window-maximized="0"
     inkscape:current-layer="g1">
    <inkscape:page
       x="0"
       y="0"
       width="1489.4545"
       height="1489.4545"
       id="page2"
       margin="0"
       bleed="0" />
  </sodipodi:namedview>
  <g
     inkscape:groupmode="layer"
     inkscape:label="Image"
     id="g1">
    <path
       style="fill:#000000"
       d="m 825.34122,1260.0801 c -0.97167,-0.9717 -7.78971,-1.207 -51.97402,-1.7937 -27.9706,-0.3713 -60.83745,-1.0477 -73.03745,-1.5029 -22.90827,-0.8548 -124.32969,-0.5268 -126.68014,0.4097 -4.39841,1.7525 -6.28494,-27.8421 -4.24166,-66.5402 0.47122,-8.9246 0.45723,-22.3921 -0.0416,-40 -0.41358,-14.6 -1.04264,-47.6545 -1.39792,-73.4545 -0.35527,-25.8 -1.07387,-73.5819 -1.59688,-106.18184 -1.35139,-84.23357 -1.21559,-104.21877 0.84013,-123.63636 1.42583,-13.46791 1.73571,-21.68786 2.23455,-59.27273 0.31853,-23.99999 0.96102,-48.38181 1.42775,-54.18181 0.92745,-11.52546 0.59769,-24.89845 -1.16568,-47.27273 -0.61474,-7.8 -1.20882,-19.90909 -1.32018,-26.90908 -0.11715,-7.3642 -0.88847,-18.39681 -1.83045,-26.18182 -1.26422,-10.4482 -1.7581,-19.79226 -2.21032,-41.81818 -0.67046,-32.65594 -0.36313,-28.72727 -2.24727,-28.72727 -0.8263,0 -2.13539,-0.33879 -2.90909,-0.75286 -1.56665,-0.83845 -1.91643,-2.88351 -0.49319,-2.88351 0.50245,0 5.00245,-0.47745 10,-1.06101 19.90982,-2.32485 56.86505,-4.01517 101.08645,-4.62366 43.85488,-0.60345 45.17127,-0.59306 65.24062,0.51465 30.5527,1.68634 31.93812,1.46332 32.34669,-5.20711 l 0.30152,-4.92259 -15.30806,0.19532 c -27.34455,0.34889 -84.21278,-0.70927 -86.56565,-1.61075 -1.50796,-0.57776 -2.24499,-0.59524 -2.42424,-0.0575 -0.99288,2.97863 -4.09552,-1.00246 -4.21562,-5.40917 -0.42651,-15.6506 -1.812,-94.70669 -1.93922,-110.65211 l -0.16332,-20.4703 4.22261,-0.059 c 2.32243,-0.0324 7.88606,-0.47408 12.36363,-0.98143 6.04521,-0.68496 24.14914,-0.89049 70.32285,-0.79835 34.2,0.0682 96.87272,0.19409 139.27272,0.27966 64.7555,0.13069 80.46569,-0.0401 98.18181,-1.06711 18.56909,-1.0765 25.13451,-1.12157 54.90911,-0.37699 18.6,0.46513 39.4706,0.62563 46.3792,0.35666 6.9086,-0.26897 16.1829,-0.25985 20.6097,0.0203 l 8.0486,0.5093 -0.4604,1.89242 c -0.2532,1.04084 -0.7015,3.03788 -0.9962,4.43788 -1.0235,4.86199 0.2939,57.10674 1.6505,65.45454 0.7804,4.80292 1.1208,9.93011 0.9172,13.81819 -0.5136,9.80889 -1.9454,23.22058 -3.028,28.36363 -0.5474,2.6 -1.2243,8.16364 -1.5043,12.36364 -0.5436,8.15285 -1.196,10.36724 -2.8653,9.72665 -0.5748,-0.22055 -1.4405,-0.15659 -1.9238,0.14213 -0.4834,0.29872 -17.2718,0.66868 -37.3076,0.82212 -20.0358,0.15344 -39.2105,0.58179 -42.6105,0.95188 -3.4,0.3701 -10.0136,0.89453 -14.6967,1.16542 -8.2283,0.47594 -8.4887,0.54158 -7.7349,1.95006 0.4914,0.91814 0.594,3.34557 0.2774,6.55919 l -0.5027,5.10164 38.4193,-0.66409 c 62.444,-1.07937 162.2762,-0.87793 165.1466,0.33323 6.9273,2.92292 1.1164,11.59159 -7.1287,10.63464 l -4.2981,-0.49885 0.377,20.9789 c 0.2073,11.53839 0.6896,26.8698 1.0717,34.0698 0.9864,18.58718 1.0359,103.2464 0.071,121.0909 -3.4757,64.26792 -3.4604,355.76926 0.021,405.38326 0.698,9.9466 0.6729,14.5267 -0.1317,24 -0.6115,7.1999 -1.0491,24.1685 -1.1366,44.0712 -0.078,17.8 -0.1779,33.7323 -0.2213,35.4051 -0.066,2.5567 -0.4557,3.31 -2.4426,4.7272 l -2.3637,1.6859 -36.7272,0.057 c -24.6178,0.038 -39.6048,0.3666 -45.4546,0.9956 -6.7675,0.7277 -38.8987,0.9598 -143.09081,1.0337 -73.89996,0.052 -134.36359,0.3408 -134.36363,0.6408 -1.2e-4,0.9429 -1.82204,0.5936 -2.98859,-0.5729 z m -221.3751,-7.2889 c 22.9697,-1.2306 94.60092,-1.588 174.62423,-0.8713 l 43.71515,0.3915 0.50027,-34.2838 c 0.27515,-18.856 0.96832,-41.6473 1.5404,-50.6473 0.57207,-9 1.37039,-21.7637 1.77404,-28.3637 2.38094,-38.9301 2.9725,-121.0897 1.11164,-154.39119 -2.10575,-37.68387 -2.44003,-63.05773 -1.61166,-122.33602 1.08764,-77.83151 1.07304,-121.46546 -0.0496,-148.36363 -0.51754,-12.4 -1.2324,-40.21818 -1.58857,-61.81818 -0.50822,-30.82126 -0.99079,-42.91772 -2.24245,-56.21048 -0.87719,-9.31577 -1.46619,-17.06645 -1.30891,-17.22373 2.13509,-2.13509 27.16481,-2.41554 185.35364,-2.07677 32.2,0.069 60.6727,0.0769 63.2727,0.0176 10.2871,-0.23447 15.6872,3.16986 10.9374,6.89519 l -2.1536,1.68907 0.7013,10.90909 c 0.3857,6 1.1949,22.85455 1.7981,37.45455 0.6033,14.6 1.37,32.10909 1.7039,38.90909 0.3339,6.8 0.4715,59.32727 0.3057,116.72726 -0.2507,86.79394 -0.1062,109.26111 0.8583,133.45454 1.7252,43.27267 2.1503,74.99145 1.2233,91.27271 -0.444,7.8 -1.1339,27.6 -1.533,44 -0.399,16.4 -1.1402,46.3455 -1.6471,66.5455 -1.0903,43.4522 -0.5846,124.2027 0.8057,128.655 0.1302,0.417 20.5716,-0.481 31.7273,-1.3938 6.7101,-0.549 17.8769,-0.5441 38.4694,0.017 31.8911,0.8691 33.167,0.7949 33.167,-1.9295 0,-0.9945 0.4005,-2.523 0.8901,-3.3967 0.6457,-1.1523 1.0391,-11.2766 1.4322,-36.8613 0.2981,-19.4 0.7502,-39.5273 1.0046,-44.7273 0.2584,-5.2803 0.089,-14.4315 -0.3829,-20.7273 -2.0056,-26.7371 -3.1186,-242.76107 -1.482,-287.63632 0.3793,-10.4 1.0282,-37.89091 1.442,-61.09091 0.4139,-23.2 1.157,-47.25454 1.6515,-53.45454 0.6419,-8.0494 0.899,-34.7421 0.899,-93.35068 V 566.4969 l -110.5454,0.25977 c -70.9189,0.16666 -137.65842,-0.10133 -186.18185,-0.74761 -96.72469,-1.28825 -95.15623,-1.28133 -124.36363,-0.54821 -17.89446,0.44917 -27.4403,0.37952 -34.54545,-0.25204 -18.21883,-1.61942 -136.52552,-3.54669 -157.48521,-2.56551 l -10.93977,0.51212 0.5663,4.11233 c 0.31146,2.26178 0.886,15.40324 1.27675,29.20324 0.48808,17.23745 1.18472,28.84691 2.2257,37.09091 0.83338,6.6 1.7974,19.03636 2.14225,27.63636 0.34486,8.6 1.173,21.69091 1.84031,29.09091 1.36679,15.15668 1.45602,24.58368 0.8605,90.90908 -0.33683,37.51343 -0.71371,50.55082 -1.88164,65.09091 -2.24952,28.00533 -2.45846,36.57646 -1.55125,63.63636 0.46266,13.8 1.13926,44.23636 1.50356,67.63636 0.36431,23.40002 1.01537,59.07272 1.4468,79.27272 0.68364,32.0084 1.03512,136.1054 0.53655,158.9091 -0.0962,4.4 -0.0118,14.7907 0.18758,23.0904 l 0.36249,15.0904 h 3.27272 c 1.8,-10e-4 12.76364,-0.5103 24.36364,-1.1317 z M 727.23884,1007.276 c -1.8,-0.3697 -4.25455,-0.5355 -5.45455,-0.3684 -2.20994,0.3078 -16.47662,-0.8722 -17.02534,-1.4081 -0.16394,-0.1601 -0.40149,-5.76704 -0.52789,-12.45984 -0.1264,-6.69281 -0.6007,-13.95524 -1.05399,-16.13874 -1.78239,-8.5857 -1.17631,-62.98127 0.70984,-63.7089 4.02348,-1.55214 39.95209,-2.56186 42.12507,-1.18386 0.64789,0.41085 1.0482,2.92131 1.2449,7.80704 0.15946,3.9608 0.80035,9.00146 1.42421,11.20146 2.47595,8.73135 3.77064,55.71495 1.86816,67.795 -0.36023,2.28734 -0.27474,3.52494 0.25641,3.71194 1.51548,0.5336 -1.77283,3.2127 -4.50557,3.6708 -1.48369,0.2488 -4.33398,0.7615 -6.33398,1.1394 -4.4632,0.8433 -8.42775,0.8253 -12.72727,-0.058 z m 16.5059,-5.3268 c 3.47395,-0.8267 4.83164,-28.86195 2.39611,-49.478 -0.4253,-3.6 -0.70594,-9.16363 -0.62366,-12.36363 0.0823,-3.2 -0.11621,-9.62635 -0.44109,-14.28078 l -0.59071,-8.46259 -3.35055,-0.4443 c -1.8428,-0.24436 -10.84775,-0.66047 -20.011,-0.92468 l -16.66045,-0.48038 0.48495,8.29636 c 1.5485,26.49112 2.02754,33.9156 2.7173,42.11455 0.42064,5 0.93924,15.32171 1.15245,22.93715 l 0.38765,13.8462 16.10746,-0.1034 c 8.8591,-0.057 17.15329,-0.3524 18.43154,-0.6565 z m -31.85328,-3.74977 c -1.31579,-1.58543 -1.30393,-12.83784 0.0243,-23.01746 0.83347,-6.38788 0.86517,-9.61114 0.17163,-17.45454 -1.0689,-12.08848 -1.09645,-28.71841 -0.0544,-32.85663 0.93095,-3.69711 1.84587,-4.03596 10.89739,-4.03596 3.13032,0 7.32314,-0.34993 9.31738,-0.77762 4.06652,-0.87211 6.52401,-0.10298 6.55549,2.05169 0.0102,0.69926 0.50575,4.54411 1.1012,8.54411 1.84226,12.37569 2.58155,28.93976 2.03448,45.5832 -0.32323,9.83349 -0.25373,16.18317 0.18473,16.8764 2.18091,3.44816 -5.76507,5.98307 -15.0292,4.79459 -2.21855,-0.28461 -5.52472,-0.0934 -8.15677,0.47169 -5.70427,1.22473 -5.88459,1.22014 -7.04616,-0.17947 z m 10.43829,-5.75951 c 3.18337,-0.57689 3.10645,0.0497 1.24619,-10.15054 -1.24705,-6.83784 -1.35421,-9.00368 -0.73767,-14.90909 0.39673,-3.8 0.83176,-9.93636 0.96675,-13.63636 l 0.24542,-6.72727 h -3.15222 -3.15222 l 0.44296,13.63636 c 0.28709,8.83775 0.16269,14.91599 -0.35351,17.27273 -2.8707,13.10642 -2.839,16.11312 0.16231,15.39328 0.8826,-0.21169 2.83199,-0.60729 4.33199,-0.87911 z m 11.45454,-1.0435 c 0.92045,-0.58123 1.12421,-3.98263 1.30403,-21.76822 l 0.21311,-21.07935 -2.75857,-0.46596 c -1.51721,-0.25628 -3.33129,-0.62308 -4.03129,-0.81511 -1.49788,-0.41091 -1.61329,0.8851 -0.46337,5.20342 0.42606,1.6 1.0596,8.14546 1.40787,14.54546 1.40939,25.90019 1.46091,26.19037 4.32822,24.37976 z m -9.23764,-50.55233 c 3.10199,-0.69013 6.77673,-1.12207 8.16608,-0.95987 l 2.52611,0.29491 v -3.38364 c 0,-1.86101 0.20161,-5.31347 0.44802,-7.67215 l 0.44802,-4.2885 -10.62984,-0.0337 c -9.13077,-0.029 -10.62626,0.12486 -10.60446,1.09091 0.014,0.61855 0.49842,3.74283 1.0766,6.94283 0.57817,3.2 1.05766,6.7532 1.06553,7.89599 0.01,1.37848 0.32558,1.95837 0.93914,1.72292 0.50865,-0.19519 3.46281,-0.91953 6.5648,-1.60966 z M 974.87519,1252.982 c 20.8,-0.01 51.78131,0.1213 68.84731,0.2841 17.066,0.1628 31.1809,0.1323 31.3665,-0.068 0.4849,-0.5227 -0.8023,-48.7 -1.3649,-51.0838 -0.3913,-1.6579 -0.759,-1.9204 -2.1879,-1.5618 -0.9447,0.2371 -5.1439,0.4794 -9.3315,0.5384 l -7.6139,0.1073 -8.2214,-4.2565 c -11.0269,-5.7089 -13.676,-8.3382 -13.676,-13.5734 0,-3.3925 3.9301,-9.4412 6.136,-9.4438 0.4252,-4e-4 1.6915,-3.8459 2.814,-8.5454 1.1225,-4.6995 3.983,-16.5097 6.3567,-26.2449 4.232,-17.3569 4.3375,-18.0413 5.4388,-35.2727 1.2176,-19.0523 1.9036,-24.28 3.5205,-26.8283 0.7344,-1.1574 1.0734,-4.0525 1.1305,-9.6532 0.045,-4.4 0.4276,-14.1669 0.8505,-21.7042 0.8933,-15.9208 1.5684,-14.1858 -6.0193,-15.4686 -16.7364,-2.8293 -36.7566,-10.3167 -38.7354,-14.4867 -7.9787,-16.81384 10.6583,-26.95079 48.5085,-26.38449 l 15.0917,0.2258 -8e-4,-8.00428 -8e-4,-8.00428 -2.2295,-0.98685 c -2.0076,-0.88865 -2.3875,-0.84299 -3.8181,0.45885 -5.6607,5.15103 -11.407,3.75223 -11.407,-2.77678 0,-3.80755 -0.7017,-3.94489 -2.4545,-0.48039 -1.8274,3.6119 -5.5936,6.3407 -8.7439,6.33536 -2.2224,-0.004 -2.9826,-0.39429 -9.1945,-4.72345 -3.8567,-2.68772 -17.6939,-3.75979 -19.5567,-1.51519 -1.4009,1.68792 -3.3047,1.40606 -4.4064,-0.65234 -0.8442,-1.57753 -0.5793,-3.74501 2.111,-17.27273 3.3401,-16.79461 4.8341,-24.75986 5.4931,-29.28701 0.2329,-1.6 0.1113,-15.24031 -0.2702,-30.3118 -0.7961,-31.44899 -0.4489,-37.1367 3.2987,-54.0428 4.6774,-21.10088 5.1637,-57.09634 1.1055,-81.82721 -4.6264,-28.19392 -5.0526,-44.94163 -1.5969,-62.74676 4.9369,-25.43607 5.9821,-39.4143 4.0063,-53.5801 -1.0506,-7.53228 -1.7387,-10.61584 -5.4853,-24.58222 -1.9476,-7.25998 -1.9506,-14.77903 -0.01,-22.93725 0.8366,-3.51549 1.5211,-6.8621 1.5211,-7.43691 0,-0.89459 -4.8446,-1.03495 -33.63637,-0.97457 -18.5,0.0388 -46.72727,-0.33718 -62.72727,-0.8355 -26.76047,-0.83347 -105.98189,-0.80357 -106.82578,0.0403 -0.19243,0.19244 0.25662,4.76263 0.9979,10.15599 2.28449,16.6214 2.9057,25.57961 3.65558,52.71519 1.14429,41.40765 2.07472,63.45052 3.43822,81.45454 1.12471,14.85106 1.24198,26.55702 1.0455,104.36363 -0.2211,87.55914 0.11126,108.13377 2.50243,154.90909 1.99168,38.96086 0.79963,127.03826 -2.28359,168.72726 -1.38296,18.6995 -2.75783,75.8319 -2.12138,88.1537 l 0.47751,9.2446 5.92045,0.289 c 3.25624,0.1589 27.19317,0.1255 53.19317,-0.074 25.99999,-0.1997 64.2909,-0.3685 85.0909,-0.375 z m 96.18181,-59.8547 c 1.7692,-0.2683 2.3636,-0.7282 2.3636,-1.829 0,-1.1032 -0.3382,-1.3632 -1.354,-1.0409 -5.0622,1.6067 -13.5396,0.6308 -17.9187,-2.0628 -2.4,-1.4763 -5.9603,-3.1583 -7.9117,-3.7378 -4.5301,-1.3453 -5.3963,-2.1015 -5.9817,-5.2215 -0.5973,-3.1843 -1.7156,-1.8133 -1.7318,2.1232 -0.014,3.2909 1.5213,4.5876 9.8631,8.3326 9.9401,4.4626 12.9216,4.9144 22.6712,3.4362 z m -2.4172,-6.8249 c 5.6779,-0.9298 5.2089,1.6359 5.7585,-31.5026 0.2667,-16.0808 0.695,-39.5468 0.9516,-52.1468 0.466,-22.8718 0.4644,-22.907 -0.988,-21.6204 -2.8689,2.5414 -9.0213,3.1955 -12.5851,1.338 l -3.1264,-1.6296 0.5109,7.5015 c 1.5594,22.8974 1.8092,28.1339 1.4683,30.7741 -0.7017,5.4349 -13.6153,55.9938 -14.5966,57.1482 -1.6687,1.963 -1.1078,2.7359 2.9023,4 2.1331,0.6724 5.6513,2.4557 7.8182,3.9628 4.3184,3.0035 5.5026,3.2202 11.8863,2.1748 z m 1.6341,-109.3681 c 1.1307,-0.9452 2.7413,-1.933 3.5792,-2.1949 1.7102,-0.5347 2.476,-10.771 2.4772,-33.1111 l 6e-4,-10.6117 -7.0915,0.253 c -8.6068,0.307 -7.7291,-1.1872 -6.3118,10.7445 1.451,12.2154 1.7354,31.947 0.4927,34.1796 -1.6772,3.0133 3.4699,3.5695 6.8536,0.7406 z m 2.4195,-54.2494 1.8181,-0.5503 -1.8181,-0.4214 c -1,-0.2318 -3.5003,-0.5864 -5.5562,-0.788 -6.6164,-0.6487 -32.7343,-7.2888 -43.3877,-11.0306 -2.6931,-0.9459 -2.7502,-0.9303 -2.2856,0.6214 0.7965,2.6605 1.8218,3.2425 10.5022,5.9615 19.4826,6.1026 33.843,8.2913 40.7273,6.2074 z m 4.3636,-0.7592 c 0,-0.4 -0.3466,-0.7272 -0.7702,-0.7272 -0.4236,0 -0.5679,0.3272 -0.3207,0.7272 0.2472,0.4 0.5938,0.7273 0.7702,0.7273 0.1764,0 0.3207,-0.3273 0.3207,-0.7273 z m 0.3771,-8.1818 c 0.2226,-0.9 0.3106,-6.0608 0.1956,-11.4685 l -0.2091,-9.83223 -12.7272,1.23343 c -7,0.67838 -15.8364,1.93205 -19.6364,2.78593 -3.8,0.85388 -8.992,2.01959 -11.5377,2.59046 -4.875,1.09321 -11.3714,5.04791 -11.3714,6.92241 0,1.3019 12.1478,4.4293 25.2624,6.5037 5.0943,0.8058 10.4943,1.7553 12,2.1101 6.2907,1.4821 17.579,0.9527 18.0238,-0.8453 z m -26.2015,-44.6431 c 0.7702,-0.77017 1.1085,-2.10332 0.961,-3.78701 -0.2676,-3.05636 1.632,-4.4504 6.0888,-4.46823 5.2287,-0.0209 8.5508,2.835 8.617,7.40771 l 0.024,1.67248 1.3344,-1.59842 c 1.7196,-2.05996 4.5624,-2.75313 7.3316,-1.78776 1.9556,0.6817 2.1947,0.60961 2.1947,-0.66168 0,-0.78471 -0.6778,-20.1586 -1.5061,-43.05308 -1.3512,-37.3461 -1.426,-45.44021 -0.7266,-78.71724 0.4288,-20.4 0.7793,-50.6878 0.7789,-67.30624 -4e-4,-16.61843 0.3684,-37.07297 0.8196,-45.45454 1.4081,-26.15665 0.513,-124.8147 -1.2889,-142.0536 -0.619,-5.92246 -1.753,-6.23708 -18.6089,-5.16271 -6.9074,0.44027 -16.1751,0.58009 -20.5948,0.31072 l -8.0358,-0.48977 -1.3328,8.49828 c -1.6758,10.68569 -1.322,14.47333 2.38,25.47606 7.9575,23.65088 8.8262,46.34479 2.8953,75.63636 -3.1169,15.39387 -2.5386,36.35307 1.6768,60.76799 4.3034,24.92433 3.9396,63.94123 -0.7946,85.23607 -3.1659,14.24024 -3.532,20.49318 -3.1105,53.12623 0.4253,32.93654 0.6284,30.6094 -5.2948,60.68432 l -2.3268,11.81464 5.9707,-0.45895 c 7.1842,-0.55222 11.9332,0.43475 16.4225,3.41306 3.7159,2.46519 4.4939,2.58653 6.1251,0.95531 z m -0.5032,-26.99323 c -1.399,-3.34253 -1.5402,-29.97961 -0.3034,-57.21316 0.6374,-14.03276 1.3348,-29.93229 1.55,-35.33229 0.2151,-5.4 0.8969,-17.01818 1.5151,-25.81818 0.6181,-8.8 1.0188,-19.68249 0.8904,-24.1833 -0.1642,-5.75088 0.011,-8.18286 0.5907,-8.18182 1.5329,0.003 1.5964,3.89045 1.2487,76.36511 -0.3576,74.52259 -0.4364,76.36364 -3.2701,76.36364 -0.8224,0 -1.7241,-0.81186 -2.2214,-2 z M 1062.571,885.11 c -2.6161,-8.73154 -3.5655,-52.33718 -1.6053,-73.7297 1.3215,-14.42255 2.4289,-16.05303 1.7288,-2.54545 -1.04,20.06508 -0.6064,39.96622 1.2216,56.06886 2.0836,18.35353 1.3593,29.23289 -1.3451,20.20629 z m -10.8463,-119.36606 c -5.7274,-22.13255 -6.0539,-27.39263 -6.3654,-102.54545 -0.1487,-35.9 -0.023,-65.27272 0.2791,-65.27272 0.3023,0 0.6376,6.3 0.7453,14 0.2101,15.03657 1.1833,35.26089 2.3184,48.18181 0.3865,4.4 0.8744,17.65455 1.0842,29.45455 0.5157,28.99798 0.8099,34.3218 2.9132,52.70851 2.8215,24.66561 2.3392,36.27976 -0.9748,23.4733 z m 3.8617,-32.36364 c -2.8387,-11.36988 -3.7906,-130.56019 -1.0195,-127.66553 0.3026,0.31605 0.7003,13.17463 0.8839,28.57463 0.2882,24.17173 0.55,29.34238 1.9146,37.81818 1.4255,8.85411 3.4677,56.41768 2.5449,59.27042 -0.1298,0.40127 -0.5921,2.12049 -1.0272,3.82049 -1.1013,4.30192 -1.8752,3.87506 -3.2967,-1.81819 z M 991.9661,550.39468 v -6.07654 l -10.72727,-0.52318 c -62.45781,-3.04609 -152.99243,-3.36736 -196.6483,-0.69782 l -7.01194,0.42877 0.3603,2.6862 c 0.19816,1.47741 0.0229,3.90798 -0.38937,5.40126 l -0.74967,2.71506 7.40131,-0.47699 c 13.5416,-0.87269 131.74186,0.32708 178.31039,1.80992 9.2,0.29294 19.59091,0.595 23.09091,0.67124 l 6.36364,0.13862 z m -283.63635,-11.3484 c 39.62279,0.5275 57.4699,0.40414 95.99999,-0.66353 27.39459,-0.75911 52.25466,-0.86064 104,-0.42473 86.85184,0.73165 99.06536,0.65814 113.94886,-0.68576 8.2131,-0.7416 23.2861,-1.17419 45.869,-1.31644 18.4999,-0.11653 33.6362,-0.47845 33.6364,-0.80428 0,-3.51376 -3.0292,-4.00939 -26.9496,-4.40701 -12.5776,-0.20907 -34.3229,-0.59435 -48.3229,-0.85618 -17.2681,-0.32295 -27.67653,-0.21166 -32.36358,0.34602 -7.08447,0.84295 -61.72139,2.09721 -110.90909,2.54608 -15.2,0.13871 -36.47272,0.48567 -47.27272,0.77103 -12.1251,0.32037 -24.54542,0.21655 -32.46987,-0.2714 -7.05843,-0.43463 -26.36752,-0.97431 -42.90909,-1.19929 -38.61193,-0.52515 -81.66606,-1.66307 -85.16649,-2.25095 -1.91645,-0.32185 -2.72727,-0.19318 -2.72727,0.43281 0,0.48996 -1.50114,2.86471 -3.33587,5.27721 l -3.33586,4.38638 8.60859,-0.607 c 4.73472,-0.33385 19.8995,-0.45668 33.6995,-0.27296 z m -40.90909,-6.79271 c 1.93756,-1.76478 2.40247,-38.70421 0.75241,-59.78234 -0.4697,-6 -0.87205,-20.32134 -0.89412,-31.82521 l -0.0401,-20.91611 -1.98519,-1.62934 c -1.09186,-0.89614 -2.82391,-3.55184 -3.849,-5.90156 -1.02508,-2.34972 -1.94879,-4.14972 -2.05268,-4 -0.10389,0.14972 0.0541,6.4904 0.35104,14.0904 0.29697,7.6 0.89929,35.25455 1.33851,61.45454 0.95736,57.10874 0.52744,53.83948 6.37914,48.50962 z m 439.79614,-29.23689 c 1.1979,-14.65282 1.1944,-15.67124 -0.086,-25.09091 -1.4822,-10.90199 -1.8045,-34.74496 -0.7558,-55.92111 l 0.5903,-11.92112 -3.4465,2.55293 -3.4466,2.55293 -0.1249,10.09546 c -0.069,5.5525 -0.1231,19.58637 -0.1209,31.18637 0,11.6 -0.014,22.97272 -0.036,25.27272 -0.022,2.3 -0.1242,13.24608 -0.2267,24.32461 l -0.1863,20.14278 2.8401,2.46007 2.8402,2.46008 0.4556,-6.42104 c 0.2506,-3.53157 1.0175,-13.29377 1.7042,-21.69377 z m -228.34161,25.46718 c 46.57895,-0.10466 87.20353,-1.10889 108.49136,-2.68189 20.15455,-1.48926 21.12285,-1.49492 58.90905,-0.34455 53.3378,1.62381 50.7871,2.01302 49.3587,-7.53165 -0.955,-6.38086 -0.6359,-73.11998 0.3885,-81.27456 0.4396,-3.49899 0.9731,-9.02718 1.1857,-12.28487 l 0.3865,-5.92307 -2.2413,-0.49226 c -1.2327,-0.27075 -12.481,-0.0599 -24.9963,0.46852 -24.306,1.02628 -68.0139,0.98381 -118.3913,-0.11503 -37.95661,-0.82792 -89.34868,-0.46268 -103.63636,0.73653 -12.94365,1.0864 -58.73939,1.06205 -89.0909,-0.0474 -29.48459,-1.07774 -88.4469,-1.27203 -89.4262,-0.29468 -0.93178,0.92992 0.29488,34.37462 1.53209,41.77225 0.43483,2.6 0.94551,18.30909 1.13485,34.90909 0.18933,16.6 0.64002,30.49058 1.00153,30.86796 0.39211,0.40932 25.08671,0.93671 61.20751,1.30718 33.30262,0.34157 64.64112,0.89842 69.64112,1.23744 5,0.33903 18.09091,0.42105 29.09091,0.18228 11,-0.23877 31.45455,-0.45986 45.45454,-0.49132 z m -39.27272,-4.92216 c -8.4,-0.30023 -34.74545,-0.66995 -58.54545,-0.82158 -37.61176,-0.23964 -45.36586,-0.48207 -59.27273,-1.8532 -8.8,-0.86762 -19.92727,-1.52768 -24.72727,-1.46678 -4.8,0.0609 -9.12485,0.0768 -9.61077,0.0354 -2.33454,-0.19888 -2.75252,-3.33227 -3.21153,-24.07526 -0.56687,-25.6169 -1.86277,-55.39976 -2.70562,-62.18182 -1.01264,-8.14822 2.81396,-9.66977 21.99855,-8.74713 25.60032,1.23119 165.43371,1.52798 208.52551,0.44258 20.34939,-0.51256 34.71338,-0.54172 41.81818,-0.0849 9.06667,0.58298 47.24486,0.8486 89.73116,0.62429 22.6564,-0.11961 34.4231,0.45387 36.9117,1.79899 l 2.3664,1.27903 -0.4486,5.97992 c -0.4778,6.36974 1.2861,23.03387 2.8142,26.58674 0.9331,2.1696 0.9309,25.70939 0,40.73238 -0.3072,4.93656 -0.3109,9.1286 -0.01,9.31565 0.8594,0.53112 0.6534,2.48098 -0.612,5.79442 -1.5714,4.11456 1.7056,3.89303 -63.2014,4.27249 -38.46622,0.22488 -61.12345,0.66671 -72.36359,1.41114 -18.65673,1.23564 -85.35053,1.81912 -109.45454,0.95758 z m 83.45454,-17.70505 4.18182,-0.47463 v -15.07599 c 0,-8.29179 0.20019,-17.00581 0.44486,-19.36448 l 0.44486,-4.2885 -10.99032,-0.12905 c -8.58375,-0.10079 -10.99031,0.0774 -10.99031,0.81383 0,0.51858 0.51755,3.84937 1.15012,7.40177 0.63256,3.55239 1.45324,10.22254 1.82372,14.82254 0.37049,4.6 0.87672,10.44539 1.12495,12.98975 l 0.45134,4.62612 4.08857,-0.42337 c 2.24872,-0.23285 5.97039,-0.63695 8.27039,-0.89799 z m -215.49766,-2.18276 c 3.71726,-0.63854 7.72559,-1.01906 8.9074,-0.84561 l 2.14876,0.31538 -0.4803,-3.4922 c -0.68926,-5.01149 -0.61075,-19.17574 0.23128,-41.72569 0.40328,-10.8 0.60177,-19.77184 0.44111,-19.93743 -0.57179,-0.58932 -15.49475,-0.96609 -18.77589,-0.47405 -3.99653,0.59931 -3.89748,-0.0984 -2.27802,16.04785 2.10228,20.96017 2.78562,33.75821 2.27166,42.54518 -0.28984,4.95518 -0.2326,8.72754 0.13243,8.72754 0.35361,0 3.68432,-0.52244 7.40157,-1.16097 z m 75.30293,-1.67166 c 0.2551,-1.5099 0.36236,-8.55234 0.23837,-15.64987 -0.23583,-13.49863 0.33703,-15.8886 3.51595,-14.66873 0.62018,0.23798 0.9431,-1.23622 1.11178,-5.07546 l 0.23773,-5.41087 -2.30041,0.43331 c -5.47888,1.03203 -8.97232,-5.88467 -8.97232,-17.76441 0,-2.17458 -0.15326,-2.30502 -2.72727,-2.32118 -1.5,-0.009 -5.15561,-0.66289 -8.12359,-1.45217 -2.96797,-0.78928 -5.49997,-1.33139 -5.62666,-1.2047 -1.99559,1.99559 -1.25832,19.10725 1.917,44.49217 0.80055,6.4 1.64303,13.7953 1.87217,16.43399 l 0.41662,4.79764 8.98841,0.0678 8.98841,0.0678 z m 26.3441,-29.53596 c -0.17073,-36.99842 0.58946,-33.59701 -7.32441,-32.77267 -2.45373,0.25559 -6.06459,0.15918 -8.02415,-0.21426 l -3.56283,-0.67896 0.47675,9.41968 c 0.3189,6.30105 0.2138,9.91098 -0.31745,10.90364 -0.55651,1.03984 -0.63669,7.536 -0.26791,21.70578 l 0.52629,20.22182 7.35399,1.5016 c 4.0447,0.82587 8.17218,1.6326 9.17218,1.79273 0.99999,0.16013 1.88539,0.33572 1.96754,0.39019 0.0822,0.0545 0.0822,-14.46682 0,-32.26955 z m 169.05014,29.54191 c 0.87717,-2.30181 0.44918,-25.02341 -0.71392,-37.90059 -0.45161,-5 -1.12102,-13.12086 -1.48758,-18.04635 -0.79307,-10.65647 -0.29086,-9.93953 -5.7684,-8.23473 -29.06432,9.04583 -35.16895,44.31593 -10.56249,61.02586 7.67678,5.2132 17.13461,6.82373 18.53239,3.15581 z m -127.51606,-1.46286 c 0.12589,-1.75925 -0.34093,-6.50471 -1.03739,-10.54546 -1.45029,-8.4144 -1.63094,-20.62742 -0.39841,-26.93493 0.91047,-4.6593 1.12178,-16.35871 0.39168,-21.68538 l -0.45159,-3.29469 -5.54841,1.83472 c -15.70407,5.19295 -27.35626,22.23319 -24.74842,36.19225 2.44044,13.06304 31.03368,35.03777 31.79254,24.43349 z m 17.20753,-0.068 c 16.87435,-5.70389 24.36621,-27.12314 14.99727,-42.87723 -7.71167,-12.96735 -24.57317,-24.18438 -26.95137,-17.92926 -1.16756,3.07094 0.45687,39.68552 2.14201,48.2807 0.80661,4.11418 1.46657,9.10509 1.46657,11.09091 0,4.32498 -0.13556,4.30167 8.34552,1.43488 z m 121.21423,0.057 c 2.54213,-0.76529 5.76751,-1.62379 7.16751,-1.90779 16.36637,-3.31994 24.57607,-29.44697 14.43867,-45.95026 -4.588,-7.46894 -14.14836,-13.62929 -22.20853,-14.31028 l -5.22442,-0.4414 -0.40185,7.45513 c -0.22102,4.10033 -0.47837,8.60059 -0.57188,10.00059 -0.0935,1.4 0.42182,6.99772 1.14519,12.43938 0.9523,7.16389 1.24727,13.23456 1.06902,22.0007 -0.13541,6.65871 -0.19885,12.10645 -0.14098,12.10606 0.0579,-3.8e-4 2.18513,-0.62684 4.72727,-1.39213 z m 57.37868,0.6586 c 18.8075,-3.56677 30.2752,-32.1355 15.6524,-38.99382 l -2.9545,-1.38569 -8.7273,8.41636 c -5.7227,5.51889 -10.7302,9.60263 -14.5454,11.86215 -3.2,1.89518 -8.4062,5.45845 -11.5692,7.91837 l -5.7511,4.47259 3.4128,3.08977 c 2.6395,2.38973 4.1897,3.19541 6.8419,3.55604 1.8861,0.25644 4.902,0.72909 6.702,1.05033 4.6936,0.83765 6.5821,0.84005 10.9384,0.0139 z M 737.81557,480.93637 c 5.12822,-2.42609 7.98044,-5.49487 9.08141,-9.77094 0.43302,-1.68181 1.13174,-4.15232 1.5527,-5.49002 2.03606,-6.47004 -1.89533,-20.07672 -7.25636,-25.11448 -2.2071,-2.074 -12.67987,-4.1206 -14.08456,-2.75241 -1.68829,1.64442 -2.88684,28.48395 -1.75088,39.20816 l 0.63554,6 3.71362,-5.7e-4 c 2.57487,-4e-4 5.06127,-0.63813 8.10853,-2.07974 z M 1037.7896,467.0274 c 3.3971,-2.79411 8.7947,-7.23988 11.9947,-9.87948 3.2,-2.63961 7.8634,-5.82366 10.3631,-7.07568 4.9347,-2.47156 5.1368,-3.09342 2.3101,-7.10969 -3.387,-4.8125 -22.6434,-6.0879 -28.9398,-1.91676 -6.9377,4.596 -8.8084,17.37793 -4.1469,28.33453 1.4911,3.50492 1.197,3.58713 8.4188,-2.35292 z m -104.76028,-9.28931 c 4.79532,-0.65138 7.97967,-4.72682 8.5807,-10.98188 l 0.33873,-3.5252 -10.08223,-1.54976 c -22.4936,-3.45752 -39.9239,-4.3951 -40.51716,-2.17944 -4.26348,15.92283 10.65583,22.4505 41.67996,18.23628 z M 691.96611,413.9218 c 19.03748,-0.99633 43.02855,-0.87332 94.16821,0.48283 40.56704,1.07577 50.54741,1.11913 73.95718,0.32128 25.41733,-0.86627 153.1067,-1.24819 154.3792,-0.46175 1.173,0.72494 34.2648,0.52858 56.4045,-0.3347 l 23.2727,-0.90746 2.7294,-2.4572 c 3.3192,-2.98823 4.6464,-2.76852 -16.9112,-2.79953 -9.8,-0.0141 -31.7273,-0.48069 -48.7273,-1.03686 -27.8274,-0.91041 -33.01184,-0.89155 -51.99997,0.18926 -26.1394,1.48785 -104.94298,1.60232 -186.90909,0.2715 -64.47071,-1.04676 -110.66987,-1.15346 -122.71343,-0.28342 l -8.53163,0.61633 2.18437,3.17488 c 3.10426,4.51188 3.83207,4.81009 10.51525,4.30854 3.2,-0.24016 11.38181,-0.72782 18.18181,-1.0837 z"
       id="path1" />
  </g>
</svg>
